<svg aria-hidden="true" style="position: absolute; width: 0; height: 0; overflow: hidden;" version="1.1" xmlns="http://www.w3.org/2000/svg" xmlns:xlink="http://www.w3.org/1999/xlink">
<defs>
<symbol id="icon-news" viewBox="0 0 24 24">
<path d="M21 4h-18c-1.104 0-2 0.896-2 2v12c0 1.104 0.896 2 2 2h18c1.104 0 2-0.896 2-2v-12c0-1.104-0.896-2-2-2zM3 6h8v12h-8v-12zM21 18h-9v-12h9.003l-0.003 12z"></path>
<path d="M20 13.5c0-0.275-0.225-0.5-0.5-0.5h-1c-0.275 0-0.5 0.225-0.5 0.5v3c0 0.275 0.225 0.5 0.5 0.5h1c0.275 0 0.5-0.225 0.5-0.5v-3z"></path>
<path d="M17 7.5c0-0.275-0.225-0.5-0.5-0.5h-3c-0.275 0-0.5 0.225-0.5 0.5v5c0 0.275 0.225 0.5 0.5 0.5h3c0.275 0 0.5-0.225 0.5-0.5v-5z"></path>
<path d="M18.5 10h1c0.275 0 0.5-0.225 0.5-0.5s-0.225-0.5-0.5-0.5h-1c-0.275 0-0.5 0.225-0.5 0.5s0.225 0.5 0.5 0.5z"></path>
<path d="M18.5 12h1c0.275 0 0.5-0.225 0.5-0.5s-0.225-0.5-0.5-0.5h-1c-0.275 0-0.5 0.225-0.5 0.5s0.225 0.5 0.5 0.5z"></path>
<path d="M13.5 15h3c0.275 0 0.5-0.225 0.5-0.5s-0.225-0.5-0.5-0.5h-3c-0.275 0-0.5 0.225-0.5 0.5s0.225 0.5 0.5 0.5z"></path>
<path d="M16.5 16h-3c-0.275 0-0.5 0.225-0.5 0.5s0.225 0.5 0.5 0.5h3c0.275 0 0.5-0.225 0.5-0.5s-0.225-0.5-0.5-0.5z"></path>
<path d="M18.5 8h1c0.275 0 0.5-0.225 0.5-0.5s-0.225-0.5-0.5-0.5h-1c-0.275 0-0.5 0.225-0.5 0.5s0.225 0.5 0.5 0.5z"></path>
<path d="M10 7.5c0-0.275-0.225-0.5-0.5-0.5h-5c-0.275 0-0.5 0.225-0.5 0.5v3c0 0.275 0.225 0.5 0.5 0.5h5c0.275 0 0.5-0.225 0.5-0.5v-3z"></path>
<path d="M9.501 14h-5c-0.274 0-0.5 0.225-0.5 0.5s0.226 0.5 0.5 0.5h5c0.274 0 0.499-0.225 0.499-0.5s-0.225-0.5-0.499-0.5z"></path>
<path d="M9.501 12h-5c-0.274 0-0.5 0.225-0.5 0.5s0.226 0.5 0.5 0.5h5c0.274 0 0.499-0.225 0.499-0.5s-0.225-0.5-0.499-0.5z"></path>
<path d="M9.501 16h-5c-0.274 0-0.5 0.225-0.5 0.5s0.226 0.5 0.5 0.5h5c0.274 0 0.499-0.225 0.499-0.5s-0.225-0.5-0.499-0.5z"></path>
</symbol>
<symbol id="icon-arrow-up-outline" viewBox="0 0 24 24">
<path d="M12 21c-1.654 0-3-1.346-3-3v-4.764c-1.143 1.024-3.025 0.979-4.121-0.115-1.17-1.169-1.17-3.073 0-4.242l7.121-7.121 7.121 7.121c1.17 1.169 1.17 3.073 0 4.242-1.094 1.095-2.979 1.14-4.121 0.115v4.764c0 1.654-1.346 3-3 3zM11 8.414v9.586c0 0.551 0.448 1 1 1s1-0.449 1-1v-9.586l3.293 3.293c0.379 0.378 1.035 0.378 1.414 0 0.391-0.391 0.391-1.023 0-1.414l-5.707-5.707-5.707 5.707c-0.391 0.391-0.391 1.023 0 1.414 0.379 0.378 1.035 0.378 1.414 0l3.293-3.293z"></path>
</symbol>
<symbol id="icon-arrow-down-outline" viewBox="0 0 24 24">
<path d="M12 21.312l-7.121-7.121c-1.17-1.17-1.17-3.073 0-4.242 1.094-1.094 2.978-1.138 4.121-0.115v-4.834c0-1.654 1.346-3 3-3s3 1.346 3 3v4.834c1.143-1.023 3.027-0.979 4.121 0.115 1.17 1.169 1.17 3.072 0 4.242l-7.121 7.121zM7 11.070c-0.268 0-0.518 0.104-0.707 0.293-0.391 0.39-0.391 1.023 0 1.414l5.707 5.707 5.707-5.707c0.391-0.391 0.391-1.024 0-1.414-0.379-0.379-1.035-0.379-1.414 0l-3.293 3.293v-9.656c0-0.551-0.448-1-1-1s-1 0.449-1 1v9.656l-3.293-3.293c-0.189-0.189-0.439-0.293-0.707-0.293z"></path>
</symbol>
<symbol id="icon-link-outline" viewBox="0 0 24 24">
<path d="M17.5 5.999c0.282 0 0.562 0.106 0.777 0.321 0.431 0.431 0.431 1.127 0 1.557l-1.72 1.723 0.307 0.308c0.585 0.584 0.906 1.362 0.906 2.192s-0.321 1.607-0.906 2.191l-4.172 4.172c-0.584 0.584-1.361 0.906-2.191 0.906s-1.607-0.322-2.191-0.906l-0.31-0.309-1.723 1.723c-0.215 0.215-0.495 0.322-0.777 0.322s-0.562-0.107-0.777-0.322c-0.431-0.43-0.431-1.126 0-1.557l1.72-1.72-0.308-0.309c-0.583-0.584-0.905-1.361-0.905-2.191s0.321-1.608 0.905-2.192l4.173-4.173c0.584-0.584 1.387-0.875 2.191-0.875s1.607 0.291 2.191 0.875l0.31 0.308 1.723-1.723c0.215-0.215 0.495-0.321 0.777-0.321M17.5 3.999c-0.828 0-1.605 0.321-2.191 0.908l-0.492 0.491c-0.707-0.351-1.504-0.539-2.316-0.539-1.363 0-2.677 0.533-3.605 1.461l-4.172 4.173c-0.964 0.962-1.494 2.241-1.494 3.607 0 0.822 0.192 1.616 0.558 2.327l-0.479 0.48c-0.586 0.585-0.909 1.364-0.909 2.193 0 0.827 0.322 1.605 0.908 2.191 0.584 0.586 1.363 0.908 2.191 0.908s1.605-0.322 2.191-0.908l0.48-0.48c0.711 0.365 1.504 0.559 2.328 0.559 1.363 0 2.645-0.53 3.605-1.492l4.172-4.172c0.963-0.962 1.492-2.242 1.492-3.605 0-0.824-0.192-1.617-0.558-2.328l0.479-0.48c0.589-0.587 0.912-1.366 0.912-2.193 0-0.828-0.322-1.606-0.908-2.192-0.587-0.588-1.364-0.909-2.192-0.909z"></path>
<path d="M11.4 11.168c0.017 0.535 0.233 1.036 0.613 1.416s0.881 0.598 1.416 0.614l-1.832 1.831c-0.017-0.534-0.234-1.035-0.613-1.415-0.381-0.38-0.881-0.597-1.416-0.614l1.832-1.832M12.5 9.029c-0.242 0-0.468 0.094-0.637 0.262l-4.172 4.172c-0.168 0.168-0.26 0.395-0.26 0.637 0 0.24 0.092 0.467 0.26 0.635l0.309 0.308 0.723-0.723c0.215-0.215 0.495-0.321 0.777-0.321s0.562 0.106 0.777 0.321c0.431 0.431 0.431 1.127 0 1.557l-0.72 0.723 0.308 0.308c0.168 0.168 0.401 0.253 0.636 0.253s0.468-0.084 0.637-0.253l4.172-4.173c0.168-0.168 0.26-0.395 0.26-0.635 0-0.242-0.092-0.469-0.26-0.637l-0.31-0.309-0.723 0.723c-0.215 0.215-0.495 0.322-0.777 0.322s-0.562-0.107-0.777-0.322c-0.431-0.43-0.431-1.126 0-1.557l0.72-0.72-0.307-0.309c-0.169-0.168-0.395-0.262-0.636-0.262z"></path>
</symbol>
<symbol id="icon-lock-closed-outline" viewBox="0 0 24 24">
<path d="M13.3 17c0 0.718-0.582 1.3-1.3 1.3s-1.3-0.582-1.3-1.3c0-0.718 0.582-1.3 1.3-1.3s1.3 0.582 1.3 1.3z"></path>
<path d="M17 10h-1v-2c0-2.206-1.794-4-4-4s-4 1.794-4 4v2h-1c-1.104 0-2 0.896-2 2v7c0 1.104 0.896 2 2 2h10c1.104 0 2-0.896 2-2v-7c0-1.104-0.896-2-2-2zM10 8c0-1.104 0.896-2 2-2s2 0.896 2 2v3h-4v-3zM17 19h-10v-7h10.003l-0.003 7z"></path>
</symbol>
<symbol id="icon-pencil" viewBox="0 0 24 24">
<path d="M21 6.879l-3.879-3.879c-0.293-0.293-0.678-0.439-1.061-0.439-0.384 0-0.767 0.146-1.060 0.439l-10.939 10.939c-0.293 0.293-0.558 0.727-0.75 1.188-0.192 0.463-0.311 0.959-0.311 1.373v4.5h4.5c0.414 0 0.908-0.119 1.371-0.311s0.896-0.457 1.189-0.75l10.94-10.939c0.293-0.293 0.439-0.678 0.439-1.061 0-0.384-0.146-0.767-0.439-1.060zM5.768 15.061l8.293-8.293 1.232 1.232-8.293 8.293-1.232-1.232zM7.5 19h-1.5l-1-1v-1.5c0-0.077 0.033-0.305 0.158-0.605 0.010-0.020 2.967 2.938 2.967 2.938-0.322 0.134-0.548 0.167-0.625 0.167zM8.939 18.232l-1.232-1.232 8.293-8.293 1.232 1.232-8.293 8.293zM17.939 9.232l-3.172-3.172 1.293-1.293 3.17 3.172-1.291 1.293z"></path>
</symbol>
<symbol id="icon-thumbs-up" viewBox="0 0 24 24">
<path d="M19.57 8.676c-0.391-0.144-2.512-0.406-3.883-0.56 0.215-1.255 0.313-2.405 0.313-3.616 0-1.379-1.122-2.5-2.5-2.5s-2.5 1.121-2.5 2.5c0 1.875-0.666 2.738-1.616 3.699-0.548-0.722-1.407-1.199-2.384-1.199-1.654 0-3 1.346-3 3v6c0 1.654 1.346 3 3 3 0.755 0 1.438-0.29 1.965-0.752 0.064 0.062 0.117 0.141 0.188 0.193 0.96 0.736 3.667 1.559 5.848 1.559 1.879 0 2.608-0.293 3.253-0.553 0.104-0.041 0.207-0.084 0.316-0.123 0.834-0.305 1.576-1.227 1.736-2.2l0.666-5.974c0.173-1.037-0.443-2.125-1.402-2.474zM7 17c-0.551 0-1-0.448-1-1v-6c0-0.552 0.449-1 1-1s1 0.448 1 1v6c0 0.552-0.449 1-1 1zM18.327 16.85c-0.037 0.224-0.292 0.541-0.443 0.596-0.131 0.049-0.254 0.099-0.376 0.146-0.545 0.219-1.016 0.408-2.508 0.408-1.914 0-4.118-0.753-4.632-1.146-0.158-0.12-0.368-0.564-0.368-0.854v-4.98c0.003-0.047 0.051-0.656 0.707-1.312 0.913-0.914 2.293-2.294 2.293-5.208 0-0.275 0.225-0.5 0.5-0.5s0.5 0.225 0.5 0.5c0 1.407-0.146 2.73-0.479 4.293l-0.297 1.396 1.321-0.188c0.603 0.050 3.933 0.447 4.334 0.55 0.058 0.030 0.132 0.183 0.111 0.323l-0.663 5.976z"></path>
</symbol>
<symbol id="icon-thumbs-down" viewBox="0 0 24 24">
<path d="M17 5c-0.755 0-1.438 0.289-1.965 0.751-0.064-0.062-0.116-0.14-0.188-0.192-0.96-0.737-3.665-1.559-5.847-1.559-1.879 0-2.607 0.293-3.252 0.552-0.103 0.042-0.207 0.085-0.316 0.124-0.834 0.305-1.578 1.229-1.738 2.2l-0.664 5.972c-0.174 1.039 0.441 2.127 1.4 2.478 0.394 0.144 2.512 0.405 3.883 0.56-0.215 1.256-0.312 2.405-0.312 3.616 0 1.379 1.121 2.5 2.5 2.5s2.5-1.121 2.5-2.5c0-1.875 0.667-2.737 1.616-3.699 0.548 0.724 1.408 1.199 2.384 1.199 1.653 0 2.999-1.347 2.999-3v-6c-0.001-1.656-1.346-3.002-3-3.002zM11 19.5c0 0.275-0.225 0.5-0.5 0.5s-0.5-0.225-0.5-0.5c0-1.805 0.256-3.241 0.479-4.293l0.297-1.398-1.321 0.188c-0.605-0.050-3.934-0.447-4.335-0.552-0.058-0.028-0.132-0.18-0.108-0.321l0.663-5.976c0.037-0.223 0.291-0.539 0.443-0.594 0.131-0.049 0.254-0.099 0.377-0.146 0.544-0.219 1.015-0.408 2.506-0.408 1.914 0 4.118 0.753 4.633 1.146 0.156 0.12 0.366 0.564 0.366 0.854v4.977c-0.001 0.026-0.040 0.649-0.707 1.316-0.913 0.913-2.293 2.293-2.293 5.207zM18 14c0 0.552-0.448 1-1 1s-1-0.448-1-1v-6c0-0.552 0.448-1 1-1s1 0.448 1 1v6z"></path>
</symbol>
</defs>
</svg>
