<?xml version="1.0" encoding="UTF-8"?>
<svg xmlns="http://www.w3.org/2000/svg" xmlns:xlink="http://www.w3.org/1999/xlink" width="864pt" height="863.999991pt" viewBox="0 0 864 863.999991" version="1.2">
<defs>
<clipPath id="clip1">
  <path d="M 284 22.285156 L 422 22.285156 L 422 236 L 284 236 Z M 284 22.285156 "/>
</clipPath>
<clipPath id="clip2">
  <path d="M 542 317 L 758.261719 317 L 758.261719 495 L 542 495 Z M 542 317 "/>
</clipPath>
<clipPath id="clip3">
  <path d="M 105.761719 198 L 336 198 L 336 361 L 105.761719 361 Z M 105.761719 198 "/>
</clipPath>
</defs>
<g id="surface1">
<path style=" stroke:none;fill-rule:nonzero;fill:rgb(99.21875%,44.309998%,54.899597%);fill-opacity:1;" d="M 224.707031 841.597656 C 288.011719 820.5625 355.707031 809.144531 426.070312 809.144531 C 496.4375 809.144531 564.128906 820.5625 627.441406 841.597656 C 576.035156 789.800781 504.804688 757.703125 426.070312 757.703125 C 347.34375 757.703125 276.113281 789.800781 224.707031 841.597656 "/>
<path style=" stroke:none;fill-rule:nonzero;fill:rgb(99.21875%,44.309998%,54.899597%);fill-opacity:1;" d="M 532.09375 379.714844 C 530.007812 382.199219 526.722656 385.683594 523.054688 390.480469 C 521.195312 392.859375 519.066406 395.453125 516.871094 398.355469 C 514.734375 401.296875 512.417969 404.476562 509.941406 407.875 C 505.136719 414.757812 499.855469 422.625 494.472656 431.417969 C 491.6875 435.761719 489.117188 440.460938 486.273438 445.234375 C 483.472656 450.03125 480.816406 455.105469 477.949219 460.261719 C 475.210938 465.480469 472.4375 470.855469 469.648438 476.371094 C 466.988281 481.941406 464.101562 487.570312 461.46875 493.414062 C 458.78125 499.234375 456.039062 505.15625 453.453125 511.222656 C 450.769531 517.257812 448.230469 523.425781 445.660156 529.644531 C 443.066406 535.851562 440.675781 542.191406 438.15625 548.515625 C 435.800781 554.890625 433.304688 561.253906 431.042969 567.695312 C 412.421875 619.066406 398.109375 671.800781 389.289062 711.933594 C 387.058594 721.964844 385.1875 731.21875 383.628906 739.46875 C 382.089844 747.726562 380.828125 754.960938 379.917969 761.011719 C 378.984375 766.882812 378.332031 772.242188 377.976562 775.289062 C 377.625 778.429688 377.429688 780.109375 377.429688 780.109375 L 411.066406 783.09375 C 411.066406 783.09375 411.1875 781.410156 411.398438 778.253906 C 411.644531 775.007812 411.9375 771.125 412.59375 765.304688 C 413.183594 759.636719 414.082031 752.691406 415.207031 744.71875 C 416.351562 736.746094 417.769531 727.738281 419.496094 717.914062 C 426.324219 678.628906 438.054688 626.375 454.015625 575.441406 C 455.945312 569.046875 458.109375 562.75 460.132812 556.414062 C 462.316406 550.148438 464.375 543.855469 466.636719 537.703125 C 468.867188 531.527344 471.082031 525.410156 473.433594 519.429688 C 475.6875 513.40625 478.097656 507.546875 480.460938 501.765625 C 482.769531 495.960938 485.324219 490.398438 487.671875 484.871094 C 490.140625 479.40625 492.597656 474.074219 495.023438 468.910156 C 497.574219 463.8125 499.929688 458.773438 502.425781 454.027344 C 504.964844 449.316406 507.253906 444.644531 509.742188 440.359375 C 514.554688 431.660156 519.285156 423.898438 523.597656 417.09375 C 525.816406 413.742188 527.898438 410.601562 529.816406 407.703125 C 531.792969 404.839844 533.707031 402.292969 535.378906 399.949219 C 538.683594 395.203125 541.628906 391.796875 543.507812 389.347656 C 545.417969 386.929688 546.4375 385.644531 546.4375 385.644531 L 535.351562 375.957031 C 535.351562 375.957031 534.214844 377.265625 532.09375 379.714844 "/>
<path style=" stroke:none;fill-rule:nonzero;fill:rgb(99.21875%,44.309998%,54.899597%);fill-opacity:1;" d="M 407.027344 770.085938 C 406.855469 767.242188 406.648438 763.976562 406.421875 760.320312 C 406.203125 756.648438 405.964844 752.578125 405.699219 748.160156 C 405.460938 743.632812 405.203125 738.738281 404.917969 733.515625 C 404.347656 723.019531 403.703125 711.175781 403 698.257812 C 402.222656 685.316406 401.441406 671.296875 400.371094 656.445312 C 399.433594 641.609375 398.128906 625.957031 396.839844 609.773438 C 396.21875 601.679688 395.339844 593.457031 394.589844 585.140625 C 393.78125 576.816406 393.089844 568.390625 392.082031 559.90625 C 391.140625 551.429688 390.191406 542.886719 389.234375 534.304688 C 388.332031 525.726562 387.054688 517.132812 385.976562 508.535156 L 384.285156 495.648438 C 383.742188 491.355469 383.171875 487.066406 382.480469 482.796875 C 381.167969 474.261719 379.859375 465.757812 378.566406 457.320312 C 377.890625 453.105469 377.339844 448.898438 376.574219 444.734375 C 375.824219 440.566406 375.082031 436.425781 374.339844 432.300781 C 372.859375 424.0625 371.398438 415.933594 369.960938 407.933594 C 366.765625 391.976562 363.476562 376.59375 360.390625 362.023438 C 356.851562 347.53125 353.507812 333.832031 350.421875 321.191406 C 346.871094 308.667969 343.613281 297.183594 340.722656 287.007812 C 340.003906 284.464844 339.300781 282 338.632812 279.632812 C 337.894531 277.269531 337.113281 275.019531 336.402344 272.839844 C 334.960938 268.492188 333.640625 264.496094 332.445312 260.890625 C 327.675781 246.480469 324.949219 238.242188 324.949219 238.242188 L 310.980469 242.875 C 310.980469 242.875 313.28125 251.101562 317.304688 265.492188 C 318.3125 269.082031 319.425781 273.058594 320.640625 277.394531 C 321.238281 279.566406 321.894531 281.808594 322.511719 284.160156 C 323.0625 286.527344 323.640625 288.976562 324.230469 291.515625 C 326.601562 301.644531 329.273438 313.066406 332.195312 325.535156 C 334.644531 338.105469 337.296875 351.726562 340.109375 366.132812 C 342.472656 380.625 345 395.898438 347.410156 411.722656 C 348.453125 419.664062 349.515625 427.742188 350.589844 435.914062 C 351.125 439.996094 351.671875 444.105469 352.214844 448.234375 C 352.777344 452.363281 353.128906 456.542969 353.601562 460.726562 C 354.484375 469.089844 355.378906 477.515625 356.277344 485.976562 C 356.761719 490.207031 357.125 494.457031 357.464844 498.71875 L 358.53125 511.488281 C 359.195312 520.011719 360.058594 528.503906 360.554688 537.011719 C 361.101562 545.507812 361.636719 553.980469 362.175781 562.375 C 362.777344 570.761719 363.070312 579.117188 363.484375 587.355469 C 363.839844 595.601562 364.332031 603.730469 364.5625 611.75 C 365.089844 627.789062 365.660156 643.277344 365.898438 658 C 366.261719 672.695312 366.390625 686.636719 366.554688 699.488281 C 366.65625 712.371094 366.746094 724.1875 366.828125 734.65625 C 366.859375 739.914062 366.894531 744.832031 366.925781 749.378906 C 366.980469 754.027344 367.03125 758.289062 367.085938 762.144531 C 367.144531 766.007812 367.199219 769.460938 367.246094 772.46875 C 367.34375 775.386719 367.425781 777.878906 367.492188 779.894531 C 367.625 783.925781 367.695312 786.074219 367.695312 786.074219 L 408.113281 783.660156 C 408.113281 783.660156 407.941406 781.515625 407.617188 777.492188 C 407.457031 775.480469 407.257812 773.003906 407.027344 770.085938 "/>
<path style=" stroke:none;fill-rule:nonzero;fill:rgb(99.21875%,44.309998%,54.899597%);fill-opacity:1;" d="M 616.773438 454.792969 C 613.90625 448.28125 610.648438 442.101562 606.878906 436.738281 C 610.480469 442.75 613.761719 448.660156 616.773438 454.792969 "/>
<path style=" stroke:none;fill-rule:nonzero;fill:rgb(99.21875%,44.309998%,54.899597%);fill-opacity:1;" d="M 553.796875 473.125 C 553.878906 473.597656 553.984375 474.074219 554.136719 474.554688 C 554.011719 474.070312 553.917969 473.597656 553.796875 473.125 "/>
<path style=" stroke:none;fill-rule:nonzero;fill:rgb(99.21875%,44.309998%,54.899597%);fill-opacity:1;" d="M 617.289062 499.308594 C 621.769531 502.9375 625.378906 507.625 627.761719 512.875 C 624.960938 501.398438 620.164062 490.414062 613.640625 480.566406 C 623.992188 487.292969 630.410156 498.1875 635.398438 509.582031 C 630.46875 496.71875 625.351562 474.253906 616.773438 454.792969 C 613.761719 448.660156 610.480469 442.75 606.878906 436.738281 C 610.648438 442.101562 613.90625 448.28125 616.773438 454.792969 C 618.253906 457.800781 619.691406 460.851562 621.03125 464.027344 C 616.886719 447.378906 610.042969 431.40625 600.859375 416.921875 C 606.757812 419.582031 611.542969 424.621094 613.90625 430.644531 C 607.4375 413.085938 593.78125 399.152344 579.253906 387.355469 C 585.160156 388.96875 590.734375 391.769531 595.558594 395.535156 C 583.488281 383.167969 565.96875 376.324219 548.707031 377.238281 C 547.164062 377.320312 545.53125 377.492188 544.308594 378.441406 C 543.082031 379.382812 542.683594 381.976562 543.730469 383.113281 C 543.394531 396.285156 542.339844 409.917969 541.242188 423.140625 C 540.421875 433.050781 541.117188 442.519531 542.804688 452.304688 C 543.917969 458.796875 543.871094 467.390625 546.671875 473.351562 C 544.070312 467.636719 546.148438 457.226562 546.21875 450.96875 C 546.359375 439.121094 546.882812 425.609375 550.394531 414.261719 C 548.707031 425.738281 549.339844 436.949219 550.667969 448.378906 C 551.667969 456.976562 551.789062 464.777344 553.796875 473.125 C 553.355469 470.417969 554.078125 467.777344 554.507812 465.027344 C 555.53125 458.402344 555.730469 451.710938 556.414062 445.039062 C 557.214844 437.261719 559.863281 430.65625 562.300781 423.3125 C 562.742188 432.335938 560.667969 441.589844 559.855469 450.582031 C 559.105469 458.941406 560.074219 466.753906 561.152344 475.019531 C 561.363281 469.328125 560.648438 464.230469 561.59375 458.484375 C 563.003906 449.914062 566.5 441.75 567.761719 433.257812 C 567.765625 455.65625 562.710938 482.992188 571.53125 504.445312 C 569.789062 498.804688 570.042969 492.324219 570.546875 486.488281 C 571.222656 478.617188 571.3125 470.277344 573.578125 462.664062 C 573.449219 472.960938 574.125 483.257812 575.054688 493.511719 C 575.808594 501.765625 575.492188 512.472656 578.558594 520.203125 C 578.695312 513.957031 578.117188 507.632812 578.117188 501.351562 C 578.117188 493.597656 576.300781 482.945312 578.429688 475.484375 C 579.5 485.679688 582.234375 495.378906 584.703125 505.300781 C 586.546875 512.722656 586.433594 520.476562 587.660156 528.023438 C 587.488281 518.367188 584.992188 505.078125 587.640625 495.828125 C 588.539062 516.9375 590.480469 539.289062 591.378906 560.398438 C 591.828125 553.011719 593.539062 545.703125 596.421875 538.878906 C 599.421875 552.015625 602.757812 565.070312 606.449219 578.03125 C 604.960938 569.898438 604.648438 561.554688 605.539062 553.335938 C 612.378906 571.074219 619.59375 588.664062 627.175781 606.09375 C 624.78125 595.621094 622.386719 585.144531 619.992188 574.664062 C 624.335938 580.589844 627.808594 587.164062 630.257812 594.101562 C 625.785156 580.21875 623.875 565.515625 624.648438 550.953125 C 628.652344 561.308594 632.40625 572.113281 635.328125 582.820312 C 634.800781 563 630.308594 543.292969 622.1875 525.195312 C 630.667969 534.894531 634.578125 547.652344 638.257812 560 C 634.914062 538.746094 627.773438 518.101562 617.289062 499.308594 "/>
<path style=" stroke:none;fill-rule:nonzero;fill:rgb(99.21875%,44.309998%,54.899597%);fill-opacity:1;" d="M 277.847656 149.132812 C 282.585938 154.050781 287.03125 159.144531 291.464844 164.574219 C 287.695312 159.210938 282.996094 154.042969 277.847656 149.132812 "/>
<path style=" stroke:none;fill-rule:nonzero;fill:rgb(99.21875%,44.309998%,54.899597%);fill-opacity:1;" d="M 239.21875 202.15625 C 238.816406 201.890625 238.402344 201.640625 238 201.359375 C 238.398438 201.667969 238.800781 201.925781 239.21875 202.15625 "/>
<path style=" stroke:none;fill-rule:nonzero;fill:rgb(99.21875%,44.309998%,54.899597%);fill-opacity:1;" d="M 328.511719 207.335938 C 322.355469 189.664062 313.886719 172.082031 299.578125 160.027344 C 304.445312 164.300781 307.550781 170.515625 308.046875 176.964844 C 297.546875 163.40625 284.855469 151.542969 270.605469 141.988281 C 273.136719 144.332031 275.519531 146.722656 277.847656 149.132812 C 282.996094 154.042969 287.695312 159.210938 291.464844 164.574219 C 287.03125 159.144531 282.585938 154.050781 277.847656 149.132812 C 262.457031 134.457031 243.070312 122.015625 232.648438 113.007812 C 241.667969 121.570312 249.738281 131.308594 252.542969 143.332031 C 245.496094 133.851562 236.796875 125.605469 226.957031 119.074219 C 231.089844 123.089844 234.269531 128.089844 236.160156 133.53125 C 222.058594 117.28125 205.058594 103.5625 186.210938 93.191406 C 196.570312 100.851562 207.242188 108.859375 213.484375 120.128906 C 199.226562 106.347656 182.222656 95.429688 163.757812 88.199219 C 172.839844 94.585938 181.726562 101.789062 190.101562 109.078125 C 176.144531 104.855469 162.972656 98.066406 151.441406 89.144531 C 157.128906 93.804688 162.125 99.300781 166.226562 105.398438 C 157.1875 99.59375 148.148438 93.785156 139.113281 87.96875 C 152.925781 101.019531 167.015625 113.785156 181.367188 126.242188 C 173.339844 124.292969 165.601562 121.164062 158.460938 117.003906 C 169.398438 124.871094 180.539062 132.449219 191.871094 139.734375 C 184.480469 140.125 177.023438 139.253906 169.921875 137.171875 C 189.464844 145.183594 209.824219 154.59375 229.367188 162.609375 C 219.769531 161.964844 208.125 155.101562 199.105469 151.660156 C 205.78125 155.378906 213.109375 157.90625 219.457031 162.164062 C 227.957031 167.851562 236.140625 173.714844 245.363281 178.1875 C 237.628906 177.65625 228.222656 172.332031 220.9375 169.699219 C 215.039062 167.566406 209.285156 164.871094 203.359375 162.878906 C 209.597656 168.390625 219.769531 171.730469 227.273438 175.238281 C 236.597656 179.601562 246.046875 183.730469 255.777344 187.101562 C 247.847656 186.652344 239.976562 183.902344 232.339844 181.863281 C 226.683594 180.359375 220.507812 178.394531 215.796875 174.847656 C 232.96875 190.421875 260.394531 194.957031 281.449219 202.5625 C 273.035156 200.863281 264.175781 201.386719 255.636719 199.800781 C 249.910156 198.734375 245.363281 196.335938 239.941406 194.605469 C 247.34375 198.421875 254.363281 201.984375 262.476562 204.117188 C 271.203125 206.40625 280.613281 207.59375 288.941406 211.078125 C 281.21875 210.875 274.105469 211.125 266.519531 209.242188 C 260.015625 207.621094 253.652344 205.53125 247.078125 204.25 C 244.34375 203.71875 241.617188 203.5 239.21875 202.15625 C 246.394531 206.890625 253.6875 209.652344 261.421875 213.507812 C 271.730469 218.640625 282.054688 223.042969 293.414062 225.359375 C 281.554688 224.808594 268.664062 220.710938 257.480469 216.816406 C 251.574219 214.761719 241.085938 213.183594 236.59375 208.789062 C 241.242188 213.449219 249.339844 216.324219 255.066406 219.582031 C 263.691406 224.488281 272.359375 228.359375 281.960938 230.949219 C 294.761719 234.40625 307.933594 238.042969 320.441406 242.199219 C 321.152344 243.574219 323.726562 244.078125 325.027344 243.246094 C 326.335938 242.410156 327.050781 240.9375 327.65625 239.511719 C 334.371094 223.585938 333.886719 204.773438 326.355469 189.214844 C 328.257812 195.035156 328.996094 201.226562 328.511719 207.335938 "/>
<path style=" stroke:none;fill-rule:nonzero;fill:rgb(99.21875%,44.309998%,54.899597%);fill-opacity:1;" d="M 315.007812 130.910156 C 312.042969 137.375 309.59375 143.914062 308.074219 150.292969 C 310.183594 143.609375 312.425781 137.238281 315.007812 130.910156 "/>
<path style=" stroke:none;fill-rule:nonzero;fill:rgb(99.21875%,44.309998%,54.899597%);fill-opacity:1;" d="M 370.515625 165.855469 C 370.820312 165.476562 371.105469 165.082031 371.359375 164.652344 C 371.085938 165.0625 370.796875 165.449219 370.515625 165.855469 "/>
<g clip-path="url(#clip1)" clip-rule="nonzero">
<path style=" stroke:none;fill-rule:nonzero;fill:rgb(99.21875%,44.309998%,54.899597%);fill-opacity:1;" d="M 402.5 48.929688 C 404.039062 41.742188 406.65625 34.777344 410.210938 28.34375 C 402.800781 40.902344 393.078125 52.097656 381.679688 61.183594 C 386.761719 51.3125 392.347656 41.328125 398.414062 32.035156 C 383.949219 45.589844 372.1875 62.039062 364.054688 80.121094 C 365.679688 67.335938 372.625 55.945312 379.410156 44.992188 C 365.738281 61.609375 355.035156 80.652344 347.949219 100.964844 C 347.695312 95.210938 348.796875 89.394531 351.148438 84.132812 C 344.425781 93.84375 339.394531 104.722656 336.363281 116.140625 C 334.515625 103.933594 338.40625 91.898438 343.609375 80.601562 C 337.269531 92.828125 323.867188 111.566406 315.007812 130.910156 C 312.425781 137.238281 310.183594 143.609375 308.074219 150.292969 C 309.59375 143.914062 312.042969 137.375 315.007812 130.910156 C 316.273438 127.804688 317.601562 124.703125 319.082031 121.589844 C 309.394531 135.742188 301.988281 151.460938 297.257812 167.953125 C 295.332031 161.769531 295.921875 154.847656 298.855469 149.078125 C 290.023438 165.574219 288.675781 185.042969 289.492188 203.746094 C 286.785156 198.253906 285.171875 192.21875 284.789062 186.113281 C 283.554688 203.351562 290.070312 221.003906 302.207031 233.3125 C 303.296875 234.414062 304.511719 235.519531 306.03125 235.804688 C 307.550781 236.097656 309.753906 234.671875 309.90625 233.132812 C 319.976562 224.640625 330.867188 216.382812 341.476562 208.425781 C 349.433594 202.464844 356.058594 195.660156 362.253906 187.898438 C 366.363281 182.753906 372.820312 177.085938 375.421875 171.03125 C 372.871094 176.773438 363.714844 182.128906 358.984375 186.234375 C 350.039062 193.984375 339.582031 202.570312 328.769531 207.476562 C 338.464844 201.117188 346.429688 193.203125 354.097656 184.621094 C 359.859375 178.167969 365.613281 172.902344 370.515625 165.855469 C 368.792969 167.984375 366.335938 169.191406 363.992188 170.699219 C 358.359375 174.332031 353.230469 178.625 347.789062 182.535156 C 341.429688 187.101562 334.742188 189.503906 327.636719 192.550781 C 334.085938 186.234375 342.386719 181.644531 349.640625 176.28125 C 356.394531 171.296875 361.585938 165.382812 367.050781 159.097656 C 362.660156 162.714844 359.320312 166.628906 354.398438 169.738281 C 347.050781 174.378906 338.632812 177.179688 331.445312 181.871094 C 348.1875 167.003906 371.984375 152.628906 382.167969 131.800781 C 379.101562 136.84375 374.09375 140.953125 369.394531 144.453125 C 363.058594 149.164062 356.765625 154.640625 349.566406 157.996094 C 357.351562 151.261719 364.605469 143.921875 371.652344 136.414062 C 377.316406 130.378906 385.535156 123.503906 389.28125 116.074219 C 384.519531 120.117188 380.179688 124.757812 375.480469 128.925781 C 369.6875 134.0625 362.925781 142.5 355.929688 145.859375 C 362.84375 138.285156 368.28125 129.808594 374.058594 121.371094 C 378.394531 115.066406 384.253906 110 389.082031 104.074219 C 381.984375 110.617188 373.703125 121.304688 365.027344 125.460938 C 380.21875 110.777344 395.640625 94.492188 410.828125 79.804688 C 405.003906 84.371094 398.394531 87.941406 391.386719 90.320312 C 399.214844 79.359375 406.761719 68.1875 414 56.824219 C 408.910156 63.335938 402.878906 69.109375 396.144531 73.894531 C 404.863281 57.007812 413.226562 39.933594 421.226562 22.6875 C 414.984375 31.4375 408.738281 40.179688 402.5 48.929688 "/>
</g>
<path style=" stroke:none;fill-rule:nonzero;fill:rgb(99.21875%,44.309998%,54.899597%);fill-opacity:1;" d="M 253.820312 280.765625 C 253.984375 280.613281 254.15625 280.453125 254.328125 280.300781 C 254.15625 280.453125 253.984375 280.605469 253.820312 280.765625 "/>
<path style=" stroke:none;fill-rule:nonzero;fill:rgb(99.21875%,44.309998%,54.899597%);fill-opacity:1;" d="M 294.023438 320.507812 C 293.832031 320.835938 293.667969 321.167969 293.460938 321.492188 C 293.6875 321.171875 293.867188 320.839844 294.023438 320.507812 "/>
<path style=" stroke:none;fill-rule:nonzero;fill:rgb(99.21875%,44.309998%,54.899597%);fill-opacity:1;" d="M 320.429688 243.734375 C 319.601562 243.421875 318.285156 244.03125 317.023438 244.574219 C 302.949219 250.648438 287.136719 249.109375 274.742188 251.996094 C 279.460938 251.671875 284.617188 252.25 289.8125 252.898438 C 275.503906 256.816406 261.488281 258.25 252.703125 269.925781 C 255.835938 265.976562 260.773438 264.269531 266.167969 265 C 255.742188 271.613281 246.964844 282.40625 240.273438 296.109375 C 244.515625 290.085938 248.988281 285.113281 253.820312 280.765625 C 253.984375 280.605469 254.15625 280.453125 254.328125 280.300781 C 255.3125 279.433594 256.300781 278.574219 257.316406 277.753906 C 256.285156 278.574219 255.296875 279.433594 254.328125 280.300781 C 254.15625 280.453125 253.984375 280.613281 253.820312 280.765625 C 238.019531 295.265625 229.851562 315.996094 219.476562 334.382812 C 225.828125 325.277344 233.265625 316.261719 243.136719 312.847656 C 235.820312 320.003906 229.703125 329.3125 225.144531 339.167969 C 228.136719 334.914062 232.039062 331.347656 236.445312 328.984375 C 224.101562 343.949219 214.164062 361.613281 207.234375 375.792969 C 212.695312 368.542969 218.421875 358.683594 227.328125 351.753906 C 217.074219 366.472656 209.496094 380.988281 205.179688 394.257812 C 209.691406 389.113281 214.914062 382.117188 220.246094 374.332031 C 218.03125 387.421875 213.570312 399.902344 207.15625 406.066406 C 210.539062 403.160156 214.695312 400.054688 219.445312 396.714844 C 215.417969 404.765625 211.382812 411.855469 207.355469 416.949219 C 217.03125 411.597656 226.4375 396.617188 235.570312 381.101562 C 234.6875 388.902344 232.796875 396.714844 229.976562 403.898438 C 235.5625 392.726562 240.886719 380.53125 245.933594 368.695312 C 246.96875 375.246094 246.957031 382.066406 245.882812 388.996094 C 250.652344 369.8125 256.179688 350.792969 261.621094 331.789062 C 262 340 257.328125 351.003906 255.292969 359.574219 C 257.785156 352.964844 259.214844 346.210938 262.191406 340.21875 C 266.175781 332.199219 270.335938 324.945312 273.214844 317.289062 C 273.515625 323.550781 269.921875 331.574219 268.410156 337.882812 C 267.175781 343 265.453125 348.191406 264.34375 353.496094 C 268.398438 347.1875 270.234375 338.472656 272.472656 332.066406 C 275.253906 324.105469 277.828125 316.421875 279.738281 308.714844 C 280.117188 314.945312 278.558594 321.214844 277.574219 327.386719 C 276.84375 331.953125 275.78125 337 273.242188 341.273438 C 284.726562 325.300781 285.917969 304.863281 290.308594 288.726562 C 289.683594 295.136719 290.972656 301.824219 290.453125 308.355469 C 290.109375 312.730469 288.523438 316.308594 287.582031 320.542969 C 290.089844 314.660156 292.417969 309.179688 293.433594 302.957031 C 294.53125 296.265625 294.628906 289.171875 296.765625 282.652344 C 297.335938 288.433594 298.230469 293.703125 297.371094 299.539062 C 296.632812 304.539062 295.476562 309.457031 295.027344 314.46875 C 294.839844 316.558594 294.921875 318.609375 294.023438 320.507812 C 297.324219 314.765625 298.949219 309.117188 301.457031 302.871094 C 304.800781 294.5625 307.515625 285.859375 308.378906 276.738281 C 309.046875 285.71875 306.839844 296.433594 304.628906 305.367188 C 303.460938 310.09375 303.136719 318.152344 299.863281 321.910156 C 303.347656 318.007812 304.996094 311.609375 307.191406 306.769531 C 310.5 299.464844 312.929688 291.785156 314.191406 283.515625 C 315.878906 272.480469 317.683594 260.691406 319.984375 248.039062 C 321.074219 246.453125 321.253906 244.050781 320.429688 243.734375 "/>
<g clip-path="url(#clip2)" clip-rule="nonzero">
<path style=" stroke:none;fill-rule:nonzero;fill:rgb(99.21875%,44.309998%,54.899597%);fill-opacity:1;" d="M 752.230469 452.203125 C 750.863281 449.210938 748.984375 447.316406 747.957031 444.5625 C 742.90625 431.101562 741.136719 416.667969 738.28125 402.578125 C 735.421875 388.484375 731.226562 374.199219 722.222656 362.980469 C 726.667969 364.492188 730.71875 367.707031 733.589844 371.417969 C 722.554688 355.988281 706.6875 344.074219 688.796875 337.773438 C 695.128906 338.234375 701.375 339.898438 707.085938 342.660156 C 688.765625 328.734375 665.683594 321.207031 642.6875 321.65625 C 647.09375 319.402344 652.246094 318.628906 657.125 319.5 C 635.625 315.417969 613.058594 317.070312 592.386719 324.253906 C 594.96875 321.941406 597.714844 319.8125 600.601562 317.894531 C 596.269531 319.070312 591.996094 320.601562 588.179688 322.964844 C 584.058594 325.507812 580.582031 328.941406 577.136719 332.339844 C 570.320312 339.0625 563.511719 345.789062 556.703125 352.511719 C 564.621094 342.90625 572.53125 333.308594 580.449219 323.707031 C 565.796875 335.617188 550.699219 348.085938 542.390625 365.042969 C 543.242188 369.683594 544.144531 374.589844 547.242188 378.148438 C 547.761719 378.746094 548.351562 379.34375 549.121094 379.523438 C 549.671875 379.65625 550.253906 379.550781 550.824219 379.449219 C 559.757812 377.902344 568.933594 379.289062 577.808594 381.167969 C 575.054688 380.171875 572.40625 378.886719 569.921875 377.332031 C 569.304688 376.941406 568.636719 376.457031 568.53125 375.730469 C 569.617188 376.921875 571 375.292969 572.589844 375.53125 C 577.449219 376.261719 581.949219 379.128906 584.648438 383.234375 C 583.519531 380.09375 581.742188 377.1875 579.460938 374.757812 C 584.328125 376.527344 588.957031 378.972656 593.164062 382.003906 C 591.820312 378.785156 590.003906 375.773438 587.789062 373.089844 C 593.453125 376.78125 599.113281 380.472656 604.78125 384.167969 C 602.5 379.515625 599.546875 375.195312 596.054688 371.371094 C 602.703125 376.0625 608.882812 381.421875 614.46875 387.34375 C 613.648438 381.765625 611.941406 376.316406 609.433594 371.269531 C 617.285156 376.355469 625.160156 381.460938 632.332031 387.476562 C 629.121094 379.355469 624.417969 371.835938 618.519531 365.402344 C 626.972656 373.042969 634.292969 381.9375 640.171875 391.703125 C 637.703125 382.773438 634.160156 374.144531 629.640625 366.066406 C 635.332031 375.222656 641.738281 383.921875 648.777344 392.082031 C 645.75 382.4375 642.679688 372.703125 637.617188 363.957031 C 645.75 373.109375 651.917969 384.015625 655.566406 395.710938 C 653.5625 383.910156 650.285156 372.3125 645.804688 361.207031 C 653.328125 372.035156 657.960938 384.566406 662.511719 396.941406 C 659.308594 386.09375 656.621094 375.089844 654.464844 363.984375 C 662.765625 380.808594 666.699219 399.390625 670.5625 417.75 C 670.875 408.9375 671.765625 399.523438 672.074219 390.707031 C 676.800781 401.5 680.125 412.898438 681.941406 424.542969 C 680.410156 413.828125 679.632812 403.414062 679.183594 392.597656 C 685.578125 405.625 690.636719 419.304688 694.238281 433.359375 C 692.25 424.351562 691.234375 415.136719 691.207031 405.910156 C 694.101562 416.867188 696.429688 427.972656 698.195312 439.171875 C 696.953125 429.5 696.242188 419.730469 696.8125 410 C 698.378906 424.375 701.0625 438.640625 704.832031 452.609375 C 703.867188 440.691406 703.335938 428.996094 703.648438 417.054688 C 708.214844 430.324219 713.105469 443.488281 718.308594 456.523438 C 715.515625 446.5 713.714844 436.199219 712.960938 425.824219 C 719.648438 440.050781 723.578125 455.390625 727.214844 470.683594 C 725.785156 457.292969 724.359375 443.898438 722.933594 430.503906 C 727.597656 449.65625 731.441406 468.996094 734.445312 488.480469 C 733.332031 476.851562 733.3125 465.460938 734.546875 453.84375 C 741.546875 467.816406 749.476562 481.332031 758.269531 494.25 C 748.101562 469.894531 742.15625 444.023438 736.265625 418.300781 C 739.375 430.476562 745.992188 445.789062 752.230469 452.203125 "/>
</g>
<g clip-path="url(#clip3)" clip-rule="nonzero">
<path style=" stroke:none;fill-rule:nonzero;fill:rgb(99.21875%,44.309998%,54.899597%);fill-opacity:1;" d="M 323.070312 243.984375 C 317.132812 236.484375 311.191406 228.976562 305.253906 221.46875 C 302.253906 217.671875 299.214844 213.847656 295.4375 210.820312 C 291.933594 208.007812 287.878906 205.960938 283.726562 204.269531 C 286.355469 206.53125 288.824219 208.976562 291.105469 211.585938 C 271.464844 201.933594 249.265625 197.539062 227.429688 198.964844 C 232.378906 198.691406 237.394531 200.085938 241.496094 202.867188 C 218.722656 199.617188 194.890625 204.269531 175.011719 215.851562 C 181.023438 213.8125 187.421875 212.917969 193.757812 213.238281 C 175.238281 217.304688 158.035156 227.195312 145.203125 241.164062 C 148.5 237.824219 152.914062 235.136719 157.507812 234.171875 C 147.207031 244.210938 141.300781 257.878906 136.75 271.511719 C 132.191406 285.15625 128.671875 299.261719 122.015625 312.003906 C 120.65625 314.613281 118.566406 316.261719 116.839844 319.070312 C 123.816406 313.464844 132.25 299.074219 136.828125 287.363281 C 127.835938 312.179688 118.785156 337.132812 105.71875 360.058594 C 116.023438 348.308594 125.546875 335.871094 134.195312 322.851562 C 134 334.527344 132.59375 345.839844 130.074219 357.246094 C 135.429688 338.28125 141.601562 319.546875 148.574219 301.105469 C 145.523438 314.230469 142.476562 327.347656 139.421875 340.464844 C 144.890625 325.726562 150.671875 310.984375 159.046875 297.675781 C 157.023438 307.882812 153.980469 317.894531 149.988281 327.5 C 156.742188 315.191406 163.199219 302.726562 169.351562 290.113281 C 168.203125 302.007812 166.25 313.546875 163.84375 325.253906 C 169.285156 311.851562 173.691406 298.027344 176.996094 283.941406 C 176.371094 293.671875 174.480469 303.285156 172.070312 312.730469 C 175.183594 301.828125 178.851562 291.09375 183.058594 280.566406 C 181.914062 289.722656 179.777344 298.742188 176.703125 307.4375 C 181.992188 293.929688 188.675781 280.972656 196.617188 268.824219 C 194.851562 279.503906 192.808594 289.75 189.980469 300.191406 C 193.207031 288.859375 197.898438 277.953125 203.902344 267.816406 C 203.132812 276.605469 202.875 286.050781 202.105469 294.839844 C 208.175781 277.089844 214.347656 259.125 224.640625 243.441406 C 221.144531 254.199219 217.136719 264.789062 212.636719 275.171875 C 218.660156 263.441406 224.785156 251.570312 233.578125 241.742188 C 227.78125 252.222656 223.109375 263.328125 219.675781 274.800781 C 224.726562 263.632812 232.171875 253.5625 241.371094 245.464844 C 235.277344 253.53125 231.042969 262.824219 226.855469 272.023438 C 234.847656 264.789062 242.257812 256.929688 249.027344 248.539062 C 243.554688 256.007812 238.988281 264.136719 235.449219 272.695312 C 242.472656 263.71875 250.824219 255.789062 260.148438 249.234375 C 253.507812 254.898438 247.917969 261.789062 243.746094 269.457031 C 251.59375 264.363281 260.035156 260.261719 268.449219 256.171875 C 265.339844 260.871094 262.984375 266.070312 261.488281 271.507812 C 267.753906 266.308594 274.542969 261.75 281.714844 257.90625 C 277.78125 261.269531 274.324219 265.199219 271.488281 269.535156 C 277.5625 266.5625 283.632812 263.585938 289.710938 260.613281 C 287.183594 263.007812 285.007812 265.777344 283.289062 268.804688 C 287.832031 266.316406 292.722656 264.449219 297.773438 263.289062 C 295.214844 265.417969 293.089844 268.085938 291.589844 271.070312 C 294.769531 267.324219 299.585938 265.027344 304.488281 264.902344 C 306.101562 264.855469 307.277344 266.640625 308.503906 265.59375 C 308.304688 266.296875 307.582031 266.695312 306.925781 267.003906 C 304.269531 268.246094 301.484375 269.203125 298.628906 269.855469 C 307.667969 269.070312 316.945312 268.8125 325.625 271.441406 C 326.167969 271.605469 326.738281 271.785156 327.304688 271.726562 C 328.085938 271.640625 328.75 271.113281 329.335938 270.589844 C 332.84375 267.429688 334.335938 262.679688 335.746094 258.171875 C 329.574219 240.320312 316.109375 226.109375 303.015625 212.5 C 309.699219 222.996094 316.386719 233.488281 323.070312 243.984375 "/>
</g>
<path style=" stroke:none;fill-rule:nonzero;fill:rgb(99.21875%,44.309998%,54.899597%);fill-opacity:1;" d="M 474.699219 142.015625 C 486.121094 147.253906 502.183594 151.746094 511.089844 150.929688 C 507.90625 150.113281 505.25 150.378906 502.464844 149.449219 C 488.828125 144.902344 476.503906 137.203125 463.75 130.566406 C 450.996094 123.921875 437.261719 118.191406 422.886719 118.132812 C 426.855469 115.628906 431.898438 114.5 436.589844 114.605469 C 417.65625 113.484375 398.414062 118.324219 382.261719 128.269531 C 386.609375 123.636719 391.832031 119.832031 397.570312 117.125 C 375.226562 122.605469 354.855469 135.824219 340.734375 153.992188 C 341.75 149.140625 344.390625 144.644531 348.140625 141.398438 C 331.4375 155.550781 318.53125 174.136719 311.105469 194.738281 C 310.933594 191.269531 311.011719 187.800781 311.332031 184.347656 C 309.519531 188.457031 308.027344 192.746094 307.457031 197.191406 C 306.84375 202 307.316406 206.863281 307.792969 211.675781 C 308.738281 221.203125 309.671875 230.726562 310.613281 240.261719 C 308.132812 228.058594 305.652344 215.867188 303.175781 203.671875 C 303.210938 222.5625 303.394531 242.140625 311.351562 259.265625 C 315.492188 261.53125 319.871094 263.914062 324.589844 263.746094 C 325.378906 263.714844 326.214844 263.632812 326.832031 263.148438 C 327.289062 262.796875 327.570312 262.28125 327.847656 261.773438 C 332.265625 253.855469 339.117188 247.589844 346.15625 241.875 C 343.65625 243.394531 340.988281 244.640625 338.21875 245.589844 C 337.53125 245.832031 336.734375 246.035156 336.097656 245.671875 C 337.707031 245.570312 337.316406 243.472656 338.503906 242.386719 C 342.121094 239.066406 347.183594 237.375 352.070312 237.851562 C 348.917969 236.753906 345.546875 236.3125 342.214844 236.558594 C 346.660156 233.882812 351.464844 231.824219 356.46875 230.460938 C 353.128906 229.480469 349.640625 228.996094 346.164062 229.027344 C 352.59375 226.953125 359.03125 224.867188 365.460938 222.789062 C 360.410156 221.640625 355.195312 221.210938 350.023438 221.527344 C 357.855469 219.304688 365.90625 217.871094 374.019531 217.253906 C 369.175781 214.378906 363.867188 212.28125 358.367188 211.058594 C 367.257812 208.152344 376.175781 205.238281 385.359375 203.445312 C 377.03125 200.832031 368.226562 199.761719 359.519531 200.300781 C 370.773438 198.535156 382.296875 198.433594 393.574219 200.007812 C 385.089844 196.308594 376.15625 193.632812 367.03125 192.066406 C 377.722656 193.402344 388.519531 193.898438 399.289062 193.554688 C 389.894531 189.84375 380.398438 186.105469 370.410156 184.539062 C 382.648438 183.96875 395.003906 186.039062 406.382812 190.5625 C 395.945312 184.691406 384.875 179.945312 373.421875 176.441406 C 386.574219 177.402344 399.222656 181.6875 411.707031 185.933594 C 401.261719 181.59375 391.019531 176.765625 381.035156 171.457031 C 399.328125 175.578125 416.242188 184.214844 432.941406 192.765625 C 426.285156 186.976562 419.535156 180.363281 412.878906 174.578125 C 424.234375 177.691406 435.191406 182.277344 445.375 188.183594 C 436.09375 182.640625 427.503906 176.6875 418.824219 170.242188 C 432.964844 173.453125 446.777344 178.128906 459.960938 184.167969 C 451.710938 180.054688 443.910156 175.039062 436.730469 169.257812 C 447.0625 173.90625 457.160156 179.082031 466.96875 184.753906 C 458.671875 179.632812 450.636719 174.039062 443.425781 167.472656 C 455.589844 175.304688 468.363281 182.191406 481.582031 188.046875 C 471.71875 181.300781 462.304688 174.355469 453.210938 166.597656 C 466.40625 171.398438 479.703125 175.878906 493.105469 180.027344 C 483.558594 175.898438 474.425781 170.8125 465.878906 164.871094 C 481.144531 168.621094 495.542969 175.214844 509.710938 182.011719 C 498.410156 174.695312 487.101562 167.378906 475.800781 160.066406 C 493.613281 168.484375 511.0625 177.664062 528.089844 187.582031 C 518.355469 181.136719 509.492188 173.980469 501.234375 165.714844 C 516.5 169.066406 531.988281 171.398438 547.5625 172.683594 C 522.238281 165.277344 498.394531 153.621094 474.699219 142.015625 "/>
<path style=" stroke:none;fill-rule:nonzero;fill:rgb(99.21875%,44.309998%,54.899597%);fill-opacity:1;" d="M 563.910156 330.242188 C 566.917969 323.742188 569.527344 317.058594 571.714844 310.246094 C 569.019531 314.058594 565.976562 317.613281 562.636719 320.875 C 567.519531 306.992188 569.585938 292.125 568.664062 277.441406 C 566.664062 282.996094 564.582031 288.527344 562.417969 294.023438 C 564.070312 283.402344 564.648438 272.613281 564.152344 261.882812 C 563.632812 267.277344 562.566406 272.621094 560.972656 277.804688 C 560.003906 264.683594 557.433594 250.4375 554.015625 237.726562 C 553.355469 243.089844 552.691406 248.4375 552.027344 253.800781 C 549.285156 237.207031 540.355469 222.382812 531.601562 208.027344 C 533 211.386719 533.519531 215.101562 533.082031 218.714844 C 526.957031 210.65625 518.859375 204.101562 509.703125 199.800781 C 512.359375 202.808594 514.628906 206.152344 516.4375 209.730469 C 510.699219 204.878906 504.050781 201.121094 496.9375 198.699219 C 503.625 201.566406 508.875 207.582031 510.8125 214.597656 C 507.652344 213.238281 504.488281 211.875 501.324219 210.523438 C 505.265625 215.480469 508.839844 220.71875 512.03125 226.1875 C 510.140625 225.046875 508.058594 224.222656 505.902344 223.75 C 509.914062 230.039062 512.867188 237 514.585938 244.261719 C 511.925781 242.664062 508.992188 241.523438 505.953125 240.910156 C 511.523438 250.484375 516.433594 260.433594 520.632812 270.675781 C 517.878906 268.082031 515.125 265.484375 512.371094 262.898438 C 516.238281 270 519.578125 277.386719 522.371094 284.976562 C 519.804688 280.410156 516.324219 276.347656 512.207031 273.105469 C 516.871094 281.285156 520.015625 290.324219 521.429688 299.640625 C 519.609375 296.304688 516.855469 293.492188 513.570312 291.601562 C 518.460938 300.941406 522.710938 310.613281 526.265625 320.535156 C 524.050781 316.726562 520.292969 314.109375 516.664062 311.621094 C 522.199219 318.210938 526.140625 326.136719 528.066406 334.527344 C 526.101562 332.75 523.824219 331.316406 521.382812 330.292969 C 525.742188 336.539062 528.847656 343.65625 530.46875 351.105469 C 527.957031 346.292969 523.40625 342.601562 518.183594 341.140625 C 523.519531 345.496094 527.800781 351.125 530.578125 357.425781 C 527.394531 355 523.71875 353.222656 519.835938 352.234375 C 525.066406 355.511719 529.167969 360.542969 531.328125 366.320312 C 528.941406 364.183594 525.800781 362.886719 522.597656 362.722656 C 530.214844 365.570312 530.660156 376.707031 537.003906 381.792969 C 542.371094 386.09375 551.535156 384.035156 554.546875 377.847656 C 557.460938 371.882812 552.988281 363.160156 556.59375 357.582031 C 565.09375 344.441406 570.792969 329.496094 573.203125 314.039062 C 571.886719 320.222656 568.589844 325.972656 563.910156 330.242188 "/>
<path style=" stroke:none;fill-rule:nonzero;fill:rgb(99.21875%,44.309998%,54.899597%);fill-opacity:1;" d="M 534.613281 350.386719 L 532.457031 348.449219 C 529.824219 338.191406 523 329.378906 514.804688 322.671875 C 506.609375 315.960938 497.046875 311.148438 487.460938 306.664062 C 496.253906 310.664062 503.785156 317.390625 508.769531 325.667969 C 497.890625 313.898438 483.015625 305.90625 467.195312 303.335938 C 471.753906 305.640625 476.144531 308.269531 480.328125 311.203125 C 469.113281 303.726562 455.300781 300.25 441.890625 301.511719 C 447.015625 301.855469 451.945312 304.457031 455.117188 308.496094 C 449.296875 304.730469 442.554688 302.40625 435.652344 301.777344 C 439.351562 303.429688 442.953125 305.289062 446.429688 307.359375 C 435.878906 304.179688 424.546875 303.628906 413.742188 305.773438 C 421.195312 304.863281 428.839844 305.507812 436.039062 307.652344 C 416.285156 309.835938 397.304688 315.789062 379.632812 324.898438 C 392.300781 320.820312 405.402344 318.101562 418.644531 316.785156 C 399.535156 320.242188 381.285156 328.390625 365.949219 340.3125 C 377.246094 332.980469 390.691406 329.019531 404.152344 329.039062 C 383.503906 334.070312 368.214844 350.984375 354.285156 367.042969 C 361.074219 361.578125 368.375 356.761719 376.058594 352.652344 C 364.53125 361.070312 355.730469 373.164062 351.265625 386.71875 C 353.277344 383.730469 354.910156 380.320312 357.84375 378.003906 C 368.265625 369.757812 378.699219 361.511719 389.125 353.273438 C 382.933594 358.507812 379.867188 366.53125 377.910156 374.40625 C 375.957031 382.277344 373.371094 389.53125 371.417969 397.808594 C 377.140625 380.84375 387.386719 365.429688 400.808594 353.59375 C 392.164062 363.039062 386.6875 375.347656 385.445312 388.09375 C 387.273438 379.875 394.257812 373.972656 400.835938 368.707031 C 409.328125 361.917969 417.832031 355.121094 426.742188 348.878906 C 416.703125 356.582031 409.230469 367.574219 405.757812 379.75 C 414.882812 366.246094 425.382812 351.734375 441.167969 347.730469 C 431.746094 356.566406 421.945312 365.988281 418.148438 378.335938 C 428.71875 365.316406 441.890625 354.417969 456.664062 346.476562 C 443.054688 357.84375 432.449219 375.132812 425.527344 388.960938 C 430.742188 381.972656 434.730469 376.898438 440.476562 371.644531 C 445.15625 367.359375 448.792969 362.078125 453.066406 357.382812 C 457.332031 352.691406 462.535156 348.441406 468.761719 347.203125 C 460.1875 355.300781 453.855469 365.75 450.644531 377.105469 C 456.265625 364.851562 466.273438 354.664062 478.414062 348.828125 C 472.398438 357.976562 468.242188 368.34375 466.292969 379.125 C 471.230469 368.542969 477.9375 358.792969 486.054688 350.402344 C 481.433594 359.992188 478.613281 370.449219 477.777344 381.054688 C 481.121094 369.371094 484.90625 356.992188 494.117188 349.066406 C 490.378906 358.28125 487.640625 367.898438 485.960938 377.703125 C 490.910156 369.101562 498.183594 361.851562 506.804688 356.933594 C 503.261719 361.671875 499.714844 366.417969 496.171875 371.160156 C 501.839844 366.484375 508.714844 363.296875 515.933594 361.992188 C 511.355469 364.441406 507.359375 367.980469 504.375 372.226562 C 509.691406 368.6875 515.769531 366.300781 522.074219 365.269531 C 517.128906 367.316406 512.800781 370.820312 509.78125 375.226562 C 518 370.546875 528.285156 374.191406 536.902344 378.082031 C 538.136719 378.632812 539.503906 379.203125 540.792969 378.804688 C 541.679688 378.527344 542.371094 377.828125 542.96875 377.113281 C 546.710938 372.679688 548.535156 366.484375 547.035156 360.875 C 545.535156 355.273438 540.414062 350.625 534.613281 350.386719 "/>
<path style=" stroke:none;fill-rule:nonzero;fill:rgb(99.21875%,44.309998%,54.899597%);fill-opacity:1;" d="M 456.769531 251.007812 C 469.996094 255.742188 482.457031 267.003906 491.050781 283.679688 C 479.980469 257.953125 462.96875 238.972656 444.28125 228.417969 C 457.367188 234.207031 470.054688 242.644531 481.667969 253.882812 C 466.144531 232.878906 447.394531 218.488281 427.570312 210.808594 C 434.964844 209.488281 442.742188 210.375 450.214844 213.726562 C 439.429688 207.640625 427.882812 205.953125 417.082031 208.058594 C 420.695312 205.976562 424.40625 204.148438 428.203125 202.621094 C 421.175781 202.011719 414.292969 203.910156 408.242188 207.78125 C 411.625 203.007812 416.664062 200.351562 421.878906 200.929688 C 408.246094 196.410156 394.246094 199.085938 382.648438 206.664062 C 386.992188 203.652344 391.5 200.96875 396.152344 198.699219 C 380.046875 199.488281 365.003906 207.707031 353.136719 219.597656 C 358.824219 210.800781 366.59375 203.671875 375.566406 199.875 C 365.773438 204.128906 355.996094 208.683594 347.324219 215.25 C 338.632812 221.820312 331.007812 230.46875 326.800781 240.796875 L 324.351562 242.4375 C 318.585938 241.628906 312.8125 245.53125 310.269531 250.78125 C 307.742188 256.058594 308.167969 262.433594 310.679688 267.722656 C 311.085938 268.574219 311.578125 269.429688 312.359375 269.933594 C 313.507812 270.664062 314.972656 270.472656 316.308594 270.238281 C 325.617188 268.683594 336.546875 267.449219 343.222656 274.992188 C 341.519531 269.300781 338.148438 264.3125 333.789062 260.898438 C 339.699219 263.582031 345.054688 267.835938 349.234375 273.363281 C 347.488281 267.769531 344.429688 262.757812 340.496094 258.933594 C 347.265625 262.179688 353.238281 267.65625 357.425781 274.726562 C 355.300781 268.253906 352.984375 261.90625 350.503906 255.6875 C 357.921875 263.386719 363.242188 273.96875 365.320312 285.585938 C 366.726562 273.761719 366.449219 261.65625 364.496094 249.914062 C 372.109375 261.582031 372.738281 277.648438 372.023438 292.457031 C 374.722656 279.804688 374.769531 266.328125 372.164062 253.628906 C 378.445312 265.84375 382.40625 279.964844 383.503906 294.59375 C 385.292969 280.90625 384.039062 266.695312 379.964844 253.855469 C 390.722656 264.34375 397.9375 280.765625 398.910156 298.445312 C 399.878906 282.929688 396.527344 267.265625 389.761719 254.640625 C 395.613281 258.011719 399.773438 265.082031 402.648438 272.59375 C 405.535156 280.109375 407.40625 288.28125 410.359375 295.742188 C 413.960938 304.929688 415.773438 313.320312 417.5 324.921875 C 417.386719 303.601562 412.800781 276.273438 401.75 257.414062 C 414.511719 272.238281 424.179688 292.019531 428.691406 314.496094 C 430.140625 296.085938 423.65625 279.113281 416.574219 264.171875 C 431.089844 274.890625 437.046875 299.375 439.464844 322.453125 C 441.527344 304.011719 438.023438 285.207031 430.277344 270.914062 C 437.28125 282.8125 443.210938 295.914062 448.472656 309.535156 C 452.550781 320.042969 456.371094 332.179688 453.875 344.8125 C 459.183594 326.164062 459.070312 305.367188 453.78125 288.035156 C 462.875 310.851562 465.742188 339.117188 460.917969 366.75 C 463.949219 353.792969 465.34375 341.832031 467.113281 329.304688 C 468.898438 316.785156 469.105469 303.296875 464.957031 292.769531 C 472.097656 309.644531 478.289062 327.351562 483.386719 345.8125 C 484.820312 351.003906 484.449219 357.136719 484.519531 362.859375 C 488.269531 339.699219 485.449219 316.09375 477.488281 297.925781 C 483.285156 307.785156 488.15625 318.929688 491.8125 331.117188 C 486.742188 298.582031 476.265625 265.664062 456.769531 251.007812 "/>
<path style=" stroke:none;fill-rule:nonzero;fill:rgb(99.21875%,44.309998%,54.899597%);fill-opacity:1;" d="M 446.578125 737.816406 C 445.460938 738.203125 444.222656 738.679688 442.898438 739.289062 C 441.554688 739.847656 440.144531 740.558594 438.660156 741.339844 C 437.152344 742.089844 435.667969 743.054688 434.074219 744.003906 C 432.5625 745.039062 430.941406 746.074219 429.421875 747.300781 C 427.84375 748.449219 426.382812 749.796875 424.859375 751.105469 C 423.4375 752.5 421.957031 753.859375 420.65625 755.359375 C 419.285156 756.792969 418.089844 758.347656 416.886719 759.828125 C 415.78125 761.367188 414.636719 762.84375 413.730469 764.34375 C 412.78125 765.828125 411.898438 767.257812 411.1875 768.628906 C 410.429688 769.957031 409.792969 771.277344 409.257812 772.507812 C 408.976562 773.105469 408.726562 773.675781 408.488281 774.191406 C 408.292969 774.671875 408.113281 775.109375 407.949219 775.5 C 407.332031 777.054688 406.972656 777.945312 406.972656 777.945312 L 418.355469 781.257812 C 418.355469 781.257812 418.527344 780.3125 418.839844 778.667969 C 418.917969 778.269531 419.003906 777.824219 419.097656 777.332031 C 419.203125 776.914062 419.316406 776.457031 419.429688 775.972656 C 419.648438 774.996094 419.933594 773.867188 420.359375 772.601562 C 420.722656 771.324219 421.226562 769.984375 421.785156 768.5625 C 422.308594 767.125 423.039062 765.691406 423.734375 764.15625 C 424.527344 762.675781 425.296875 761.101562 426.257812 759.601562 C 427.148438 758.050781 428.222656 756.59375 429.25 755.074219 C 430.386719 753.648438 431.464844 752.15625 432.699219 750.832031 C 433.867188 749.433594 435.164062 748.203125 436.382812 746.957031 C 437.679688 745.800781 438.898438 744.605469 440.171875 743.636719 C 441.421875 742.628906 442.628906 741.679688 443.804688 740.910156 C 444.949219 740.074219 446.050781 739.382812 447.046875 738.804688 C 448.03125 738.195312 448.898438 737.675781 449.648438 737.3125 C 451.128906 736.542969 451.976562 736.097656 451.976562 736.097656 C 451.976562 736.097656 451.054688 736.367188 449.449219 736.839844 C 448.632812 737.058594 447.671875 737.398438 446.578125 737.816406 "/>
<path style=" stroke:none;fill-rule:nonzero;fill:rgb(99.21875%,44.309998%,54.899597%);fill-opacity:1;" d="M 409.707031 779.257812 C 409.703125 779.246094 409.695312 779.230469 409.6875 779.21875 L 409.679688 779.226562 C 409.679688 779.226562 409.6875 779.238281 409.707031 779.257812 "/>
<path style=" stroke:none;fill-rule:nonzero;fill:rgb(99.21875%,44.309998%,54.899597%);fill-opacity:1;" d="M 423.371094 771.367188 C 423.359375 771.332031 423.351562 771.3125 423.351562 771.3125 L 422.773438 771.652344 C 422.808594 771.710938 422.847656 771.777344 422.878906 771.851562 C 423.011719 772.101562 423.105469 772.328125 423.199219 772.566406 C 423.5625 773.523438 423.648438 774.351562 423.664062 774.949219 C 423.664062 774.988281 423.65625 775.007812 423.65625 775.050781 C 423.714844 774.789062 423.789062 774.492188 423.910156 774.167969 C 423.988281 773.953125 424.101562 773.707031 424.195312 773.476562 C 424.175781 773.398438 424.167969 773.308594 424.148438 773.230469 C 423.949219 772.5 423.664062 771.871094 423.371094 771.367188 "/>
<path style=" stroke:none;fill-rule:nonzero;fill:rgb(99.21875%,44.309998%,54.899597%);fill-opacity:1;" d="M 460.9375 748.449219 C 459.355469 748.378906 457.632812 748.359375 455.800781 748.425781 C 453.96875 748.464844 452.039062 748.597656 450.035156 748.816406 C 448.03125 749.027344 445.960938 749.328125 443.863281 749.746094 C 441.765625 750.136719 439.648438 750.660156 437.539062 751.265625 C 435.429688 751.855469 433.34375 752.574219 431.300781 753.34375 C 430.277344 753.734375 429.238281 754.199219 428.214844 754.625 C 427.292969 755.035156 426.382812 755.445312 425.488281 755.851562 C 423.398438 756.902344 421.679688 757.855469 419.914062 759.023438 C 418.183594 760.171875 416.570312 761.433594 415.136719 762.796875 C 413.710938 764.148438 412.476562 765.597656 411.480469 767.023438 C 410.476562 768.4375 409.753906 769.820312 409.109375 771.324219 C 408.925781 771.757812 408.757812 772.148438 408.605469 772.480469 L 408.59375 772.515625 L 408.585938 772.527344 L 408.5 772.832031 L 408.433594 773.070312 C 408.386719 773.265625 408.347656 773.464844 408.300781 773.648438 C 408.222656 774.101562 408.136719 774.65625 408.148438 775.414062 C 408.160156 776.164062 408.28125 777.132812 408.691406 778.214844 C 408.792969 778.488281 408.90625 778.742188 409.050781 779.019531 C 409.191406 779.296875 409.296875 779.503906 409.59375 779.941406 C 409.820312 780.28125 410.292969 780.816406 410.171875 780.683594 L 410.1875 780.699219 L 410.191406 780.710938 L 410.628906 781.171875 L 410.777344 781.300781 C 411.574219 782.046875 412.453125 782.5625 413.359375 782.910156 C 414.1875 783.226562 415.03125 783.386719 415.707031 783.425781 C 417.09375 783.507812 418.128906 783.28125 419.003906 782.976562 C 420.695312 782.339844 422.234375 781.347656 423.492188 779.125 C 423.761719 778.632812 424.035156 777.949219 424.199219 777.285156 C 424.351562 776.675781 424.4375 775.960938 424.433594 775.308594 C 424.433594 774.984375 424.414062 774.679688 424.371094 774.378906 C 424.339844 774.066406 424.265625 773.769531 424.195312 773.476562 C 424.101562 773.707031 423.988281 773.953125 423.910156 774.167969 C 423.789062 774.492188 423.714844 774.789062 423.65625 775.050781 C 423.65625 775.59375 423.597656 775.980469 423.542969 776.246094 L 423.464844 776.589844 L 423.429688 776.695312 L 423.351562 776.980469 L 423.351562 776.960938 L 423.359375 776.929688 C 423.417969 776.589844 423.484375 776.203125 423.558594 775.78125 C 423.558594 775.671875 423.582031 775.394531 423.65625 775.050781 C 423.65625 775.007812 423.664062 774.988281 423.664062 774.949219 C 423.648438 774.351562 423.5625 773.523438 423.199219 772.566406 C 423.105469 772.328125 423.011719 772.101562 422.878906 771.851562 C 422.847656 771.777344 422.808594 771.710938 422.773438 771.652344 L 409.6875 779.21875 C 409.695312 779.230469 409.703125 779.246094 409.707031 779.257812 C 409.6875 779.238281 409.679688 779.226562 409.679688 779.226562 L 409.6875 779.21875 C 409.410156 778.742188 409.136719 778.136719 408.945312 777.445312 C 408.84375 777.085938 408.773438 776.714844 408.726562 776.332031 C 408.6875 776.039062 408.664062 775.746094 408.664062 775.433594 C 408.660156 774.804688 408.746094 774.113281 408.890625 773.523438 C 409.050781 772.890625 409.316406 772.234375 409.570312 771.769531 C 410.761719 769.652344 412.183594 768.78125 413.695312 768.199219 C 414.484375 767.933594 415.421875 767.714844 416.703125 767.792969 C 417.324219 767.832031 418.117188 767.980469 418.890625 768.277344 C 419.742188 768.605469 420.570312 769.09375 421.328125 769.792969 L 421.464844 769.917969 L 421.890625 770.371094 L 421.882812 770.363281 L 421.863281 770.351562 C 421.726562 770.191406 422.183594 770.703125 422.382812 771.011719 C 422.582031 771.304688 422.679688 771.476562 422.773438 771.652344 L 423.351562 771.3125 C 423.351562 771.3125 423.359375 771.332031 423.371094 771.367188 C 423.664062 771.871094 423.949219 772.5 424.148438 773.230469 C 424.167969 773.308594 424.175781 773.398438 424.195312 773.476562 C 424.445312 772.886719 424.746094 772.261719 425.183594 771.558594 C 425.785156 770.582031 426.597656 769.511719 427.609375 768.410156 C 428.582031 767.328125 429.90625 766.109375 431.089844 765.085938 C 431.851562 764.496094 432.628906 763.890625 433.410156 763.273438 C 434.132812 762.75 434.835938 762.199219 435.621094 761.667969 C 437.195312 760.585938 438.847656 759.53125 440.550781 758.566406 C 442.261719 757.589844 444.015625 756.675781 445.800781 755.878906 C 447.570312 755.050781 449.371094 754.324219 451.136719 753.695312 C 452.90625 753.042969 454.652344 752.5 456.332031 752.046875 C 458.011719 751.570312 459.621094 751.207031 461.121094 750.914062 C 464.128906 750.289062 466.691406 750.03125 468.496094 749.84375 C 470.304688 749.71875 471.339844 749.652344 471.339844 749.652344 C 471.339844 749.652344 470.3125 749.472656 468.515625 749.160156 C 466.710938 748.921875 464.109375 748.558594 460.9375 748.449219 "/>
<path style=" stroke:none;fill-rule:nonzero;fill:rgb(99.21875%,44.309998%,54.899597%);fill-opacity:1;" d="M 466.296875 768.921875 C 465.261719 768.578125 464.074219 768.21875 462.753906 767.933594 C 461.441406 767.582031 460 767.324219 458.460938 767.070312 C 456.921875 766.777344 455.277344 766.679688 453.570312 766.5 C 451.867188 766.433594 450.082031 766.3125 448.273438 766.398438 C 446.457031 766.386719 444.625 766.605469 442.773438 766.757812 C 440.941406 767.039062 439.085938 767.257812 437.300781 767.6875 C 435.488281 768.027344 433.75 768.5625 432.042969 769.042969 C 430.386719 769.621094 428.734375 770.125 427.238281 770.789062 C 425.734375 771.417969 424.308594 772.035156 423.046875 772.71875 C 421.765625 773.335938 420.582031 774.015625 419.535156 774.671875 C 419.011719 774.988281 418.519531 775.289062 418.0625 775.566406 C 417.671875 775.832031 417.304688 776.078125 416.972656 776.296875 C 415.691406 777.179688 414.957031 777.683594 414.957031 777.683594 L 421.222656 785.320312 C 421.222656 785.320312 421.859375 784.695312 422.964844 783.605469 C 423.246094 783.347656 423.5625 783.007812 423.882812 782.730469 C 424.1875 782.464844 424.519531 782.179688 424.871094 781.875 C 425.5625 781.25 426.390625 780.546875 427.40625 779.824219 C 428.367188 779.050781 429.484375 778.316406 430.683594 777.546875 C 431.863281 776.742188 433.210938 776.070312 434.574219 775.296875 C 435.984375 774.632812 437.4375 773.875 438.992188 773.296875 C 440.519531 772.621094 442.136719 772.148438 443.75 771.589844 C 445.394531 771.171875 447.042969 770.675781 448.699219 770.390625 C 450.351562 770.019531 452.011719 769.84375 453.617188 769.625 C 455.230469 769.511719 456.800781 769.335938 458.296875 769.355469 C 459.796875 769.335938 461.214844 769.339844 462.523438 769.460938 C 463.835938 769.511719 465.039062 769.652344 466.097656 769.8125 C 467.167969 769.9375 468.097656 770.070312 468.851562 770.25 C 470.371094 770.5625 471.242188 770.742188 471.242188 770.742188 C 471.242188 770.742188 470.417969 770.410156 468.964844 769.84375 C 468.242188 769.535156 467.339844 769.234375 466.296875 768.921875 "/>
<path style=" stroke:none;fill-rule:nonzero;fill:rgb(99.21875%,44.309998%,54.899597%);fill-opacity:1;" d="M 377.894531 760.589844 C 375.644531 754.457031 371.777344 746.546875 366.328125 739.894531 C 365.023438 738.308594 363.527344 736.621094 362.074219 735.15625 C 360.582031 733.6875 359.070312 732.3125 357.542969 731.070312 C 354.476562 728.589844 351.390625 726.632812 348.664062 725.191406 C 345.929688 723.75 343.554688 722.8125 341.875 722.25 C 340.199219 721.671875 339.226562 721.414062 339.226562 721.414062 C 339.226562 721.414062 340.109375 721.90625 341.578125 722.859375 C 343.042969 723.804688 345.066406 725.257812 347.265625 727.214844 C 349.453125 729.1875 351.796875 731.675781 353.960938 734.558594 C 355.042969 735.996094 356.0625 737.542969 357.03125 739.144531 C 357.996094 740.769531 358.8125 742.351562 359.660156 744.121094 C 362.867188 750.953125 364.378906 758.292969 364.949219 763.769531 C 365.234375 766.492188 365.332031 768.863281 365.339844 770.355469 C 365.355469 772.054688 365.359375 773.019531 365.359375 773.019531 L 381.019531 770.980469 C 381.019531 770.980469 380.753906 769.972656 380.296875 768.199219 C 379.792969 766.242188 379.03125 763.691406 377.894531 760.589844 "/>
<path style=" stroke:none;fill-rule:nonzero;fill:rgb(99.21875%,44.309998%,54.899597%);fill-opacity:1;" d="M 375.613281 771.34375 C 375.480469 770.78125 375.320312 770.363281 375.140625 769.792969 C 374.390625 767.613281 372.972656 764.808594 371.007812 762.160156 C 370.039062 760.824219 368.945312 759.515625 367.796875 758.234375 C 366.679688 757.007812 365.421875 755.660156 364.105469 754.351562 C 361.464844 751.738281 358.464844 749.101562 355.226562 746.785156 C 353.609375 745.628906 351.9375 744.554688 350.238281 743.589844 C 349.40625 743.125 348.492188 742.628906 347.710938 742.257812 C 346.847656 741.832031 345.949219 741.414062 345.113281 741.070312 C 341.71875 739.640625 338.417969 738.730469 335.570312 738.28125 C 332.71875 737.804688 330.34375 737.769531 328.699219 737.824219 C 327.875 737.847656 327.238281 737.894531 326.800781 737.949219 C 326.367188 737.988281 326.128906 738.007812 326.128906 738.007812 C 326.128906 738.007812 326.363281 738.046875 326.792969 738.121094 C 327.222656 738.1875 327.847656 738.3125 328.632812 738.5 C 330.203125 738.871094 332.40625 739.515625 334.863281 740.644531 C 337.324219 741.753906 340.019531 743.367188 342.621094 745.398438 C 343.277344 745.90625 343.875 746.417969 344.511719 746.976562 C 345.214844 747.585938 345.765625 748.125 346.402344 748.742188 C 347.617188 749.949219 348.777344 751.246094 349.871094 752.59375 C 352.070312 755.289062 353.980469 758.1875 355.605469 761.015625 C 356.421875 762.4375 357.136719 763.792969 357.84375 765.164062 C 358.503906 766.492188 359.042969 767.699219 359.441406 768.769531 C 360.25 770.925781 360.449219 772.480469 360.46875 773.441406 C 360.457031 773.65625 360.488281 773.941406 360.441406 774 C 360.417969 774.132812 360.402344 774.082031 360.402344 774.386719 C 360.398438 774.824219 360.390625 775.054688 360.390625 775.054688 L 376.078125 773.175781 C 376.078125 773.175781 376.019531 772.953125 375.90625 772.527344 C 375.832031 772.207031 375.730469 771.808594 375.613281 771.34375 "/>
<path style=" stroke:none;fill-rule:nonzero;fill:rgb(99.21875%,44.309998%,54.899597%);fill-opacity:1;" d="M 349.851562 771.132812 C 348.96875 770.441406 347.972656 769.707031 346.871094 768.980469 C 345.792969 768.210938 344.570312 767.449219 343.269531 766.664062 C 341.988281 765.863281 340.5625 765.132812 339.128906 764.34375 C 337.640625 763.617188 336.144531 762.84375 334.550781 762.183594 C 332.992188 761.46875 331.339844 760.890625 329.71875 760.265625 C 328.066406 759.730469 326.433594 759.152344 324.78125 758.726562 C 323.15625 758.242188 321.511719 757.902344 319.945312 757.542969 C 318.351562 757.257812 316.832031 756.933594 315.367188 756.761719 C 313.90625 756.5625 312.53125 756.390625 311.25 756.308594 C 309.976562 756.191406 308.808594 756.136719 307.773438 756.117188 C 306.734375 756.078125 305.835938 756.050781 305.09375 756.085938 C 303.613281 756.105469 302.765625 756.117188 302.765625 756.117188 C 302.765625 756.117188 303.601562 756.230469 305.074219 756.421875 C 305.804688 756.503906 306.6875 756.648438 307.695312 756.839844 C 308.703125 757.015625 309.839844 757.226562 311.058594 757.53125 C 312.292969 757.789062 313.609375 758.15625 314.980469 758.554688 C 316.367188 758.925781 317.789062 759.457031 319.261719 759.949219 C 320.722656 760.519531 322.226562 761.0625 323.707031 761.753906 C 325.207031 762.382812 326.671875 763.160156 328.148438 763.882812 C 329.578125 764.699219 331.035156 765.457031 332.386719 766.339844 C 333.765625 767.164062 335.054688 768.09375 336.316406 768.949219 C 337.53125 769.878906 338.730469 770.726562 339.792969 771.636719 C 340.859375 772.527344 341.871094 773.371094 342.738281 774.214844 C 343.648438 775.023438 344.417969 775.785156 345.066406 776.46875 C 345.730469 777.132812 346.308594 777.730469 346.8125 778.316406 C 347.800781 779.417969 348.367188 780.046875 348.367188 780.046875 L 353.839844 774.351562 C 353.839844 774.351562 353.191406 773.808594 352.050781 772.867188 C 351.511719 772.402344 350.753906 771.808594 349.851562 771.132812 "/>
<path style=" stroke:none;fill-rule:nonzero;fill:rgb(99.21875%,44.309998%,54.899597%);fill-opacity:1;" d="M 493.351562 787.324219 C 492.296875 786.222656 490.480469 784.914062 488.070312 783.820312 C 486.875 783.261719 485.550781 782.761719 484.140625 782.257812 C 482.734375 781.742188 481.214844 781.277344 479.636719 780.832031 C 478.058594 780.378906 476.398438 780 474.691406 779.644531 C 472.992188 779.304688 471.242188 779.03125 469.484375 778.808594 C 467.71875 778.609375 465.945312 778.449219 464.1875 778.363281 C 462.429688 778.296875 460.691406 778.269531 459.011719 778.320312 C 457.328125 778.363281 455.695312 778.460938 454.148438 778.621094 C 452.59375 778.761719 451.140625 778.972656 449.789062 779.171875 C 448.441406 779.398438 447.21875 779.625 446.105469 779.863281 C 445.003906 780.121094 443.960938 780.351562 443.238281 780.546875 C 441.792969 780.929688 440.960938 781.15625 440.960938 781.15625 L 444.359375 790.421875 C 444.359375 790.421875 445.136719 790.058594 446.492188 789.414062 C 447.113281 789.140625 447.871094 788.808594 448.738281 788.433594 C 449.617188 788.066406 450.664062 787.667969 451.792969 787.257812 C 452.933594 786.871094 454.175781 786.449219 455.515625 786.082031 C 456.847656 785.691406 458.277344 785.34375 459.769531 785.035156 C 461.261719 784.703125 462.828125 784.449219 464.425781 784.21875 C 466.027344 784.003906 467.664062 783.851562 469.3125 783.738281 C 470.964844 783.652344 472.617188 783.613281 474.253906 783.640625 C 475.886719 783.679688 477.507812 783.753906 479.066406 783.90625 C 480.625 784.050781 482.144531 784.230469 483.566406 784.476562 C 485 784.707031 486.34375 784.953125 487.554688 785.273438 C 489.980469 785.882812 491.878906 786.785156 493.082031 787.648438 C 493.683594 788.066406 494.117188 788.464844 494.402344 788.738281 C 494.679688 789.03125 494.832031 789.183594 494.832031 789.183594 C 494.832031 789.183594 494.714844 789.003906 494.488281 788.671875 C 494.25 788.339844 493.890625 787.867188 493.351562 787.324219 "/>
<path style=" stroke:none;fill-rule:nonzero;fill:rgb(99.21875%,44.309998%,54.899597%);fill-opacity:1;" d="M 367.65625 764.734375 C 363.933594 761.992188 358.558594 758.25 352.359375 756.023438 C 350.875 755.472656 349.175781 754.996094 347.75 754.695312 C 346.117188 754.320312 344.664062 754.132812 343.195312 753.988281 C 340.296875 753.707031 337.664062 753.726562 335.425781 753.808594 C 333.195312 753.894531 331.359375 754.035156 330.070312 754.125 C 328.789062 754.226562 328.054688 754.285156 328.054688 754.285156 C 328.054688 754.285156 328.765625 754.472656 330.011719 754.804688 C 331.253906 755.136719 333.023438 755.613281 335.109375 756.257812 C 337.183594 756.902344 339.566406 757.722656 341.929688 758.824219 C 343.089844 759.363281 344.332031 760 345.359375 760.664062 C 346.585938 761.40625 347.554688 762.105469 348.597656 762.96875 C 352.652344 766.28125 355.804688 770.628906 358.152344 774.074219 C 359.320312 775.792969 360.289062 777.292969 360.96875 778.34375 C 361.664062 779.417969 362.0625 780.035156 362.0625 780.035156 L 373.683594 769.339844 C 373.683594 769.339844 373.097656 768.882812 372.074219 768.09375 C 371.035156 767.28125 369.535156 766.121094 367.65625 764.734375 "/>
<path style=" stroke:none;fill-rule:nonzero;fill:rgb(99.21875%,44.309998%,54.899597%);fill-opacity:1;" d="M 457.746094 720.675781 C 456.160156 718.929688 453.273438 716.792969 449.171875 715.871094 C 447.167969 715.398438 444.792969 715.28125 442.421875 715.613281 C 440.027344 715.984375 437.566406 716.804688 435.222656 718.054688 C 432.886719 719.300781 430.671875 720.949219 428.667969 722.878906 C 426.664062 724.8125 424.871094 727.027344 423.332031 729.351562 C 420.210938 734.03125 417.984375 739.125 415.957031 743.757812 C 413.953125 748.382812 412.082031 752.707031 410.476562 756.410156 C 409.679688 758.253906 408.925781 759.921875 408.28125 761.621094 C 407.636719 763.292969 407.167969 764.925781 406.933594 766.386719 C 406.695312 767.867188 406.667969 769.023438 406.742188 770.023438 C 406.816406 770.753906 406.847656 771.144531 406.847656 771.144531 L 414.652344 769.929688 C 414.652344 769.929688 414.597656 769.660156 414.5 769.140625 C 414.445312 768.894531 414.367188 768.1875 414.433594 767.34375 C 414.480469 766.464844 414.679688 765.3125 415.082031 763.878906 C 415.46875 762.464844 416.078125 760.699219 416.703125 758.78125 C 417.960938 754.941406 419.429688 750.476562 421.007812 745.683594 C 422.574219 740.917969 424.253906 735.9375 426.707031 731.398438 C 427.9375 729.121094 429.355469 726.996094 430.996094 725.089844 C 432.640625 723.191406 434.5 721.527344 436.496094 720.207031 C 438.492188 718.890625 440.636719 717.949219 442.773438 717.410156 C 444.945312 716.90625 447 716.828125 448.953125 717.085938 C 452.847656 717.589844 455.808594 719.355469 457.503906 720.914062 C 458.34375 721.726562 458.933594 722.4375 459.285156 722.945312 C 459.636719 723.472656 459.820312 723.75 459.820312 723.75 C 459.820312 723.75 459.664062 723.457031 459.363281 722.898438 C 459.050781 722.347656 458.527344 721.578125 457.746094 720.675781 "/>
<path style=" stroke:none;fill-rule:nonzero;fill:rgb(99.21875%,44.309998%,54.899597%);fill-opacity:1;" d="M 480.066406 746.882812 C 476.589844 746.015625 472.449219 745.238281 467.929688 744.898438 C 465.675781 744.734375 463.320312 744.691406 460.921875 744.765625 C 458.5625 744.867188 456 745.132812 453.710938 745.488281 C 451.203125 745.929688 448.859375 746.480469 446.503906 747.195312 C 444.179688 747.945312 441.925781 748.796875 439.800781 749.792969 C 435.554688 751.769531 431.84375 754.226562 428.898438 756.660156 C 427.4375 757.898438 426.15625 759.113281 425.070312 760.234375 C 424.007812 761.382812 423.085938 762.410156 422.355469 763.375 C 421.566406 764.328125 421.179688 764.933594 420.835938 765.398438 C 420.511719 765.847656 420.339844 766.089844 420.339844 766.089844 L 426.972656 770.371094 C 426.972656 770.371094 427.121094 770.109375 427.398438 769.632812 C 427.664062 769.175781 428.097656 768.359375 428.566406 767.675781 C 429.019531 766.929688 429.683594 766.007812 430.476562 764.941406 C 431.292969 763.902344 432.269531 762.761719 433.40625 761.574219 C 435.707031 759.230469 438.714844 756.734375 442.324219 754.5625 C 444.121094 753.476562 446.078125 752.5 448.117188 751.597656 C 450.148438 750.734375 452.355469 749.96875 454.464844 749.367188 C 456.816406 748.75 458.933594 748.3125 461.214844 747.964844 C 463.457031 747.660156 465.699219 747.46875 467.878906 747.394531 C 472.230469 747.269531 476.339844 747.59375 479.828125 748.09375 C 483.3125 748.601562 486.199219 749.265625 488.195312 749.792969 C 490.199219 750.316406 491.335938 750.660156 491.335938 750.660156 C 491.335938 750.660156 490.246094 750.195312 488.304688 749.472656 C 486.359375 748.734375 483.539062 747.765625 480.066406 746.882812 "/>
<path style=" stroke:none;fill-rule:nonzero;fill:rgb(99.21875%,44.309998%,54.899597%);fill-opacity:1;" d="M 359.539062 753.488281 C 359.210938 751.78125 358.777344 749.964844 358.09375 748.152344 C 357.449219 746.328125 356.585938 744.496094 355.597656 742.683594 C 354.617188 740.863281 353.4375 739.109375 352.175781 737.390625 C 350.882812 735.679688 349.5 734.078125 347.980469 732.484375 C 346.5625 731.046875 344.957031 729.539062 343.429688 728.191406 C 341.871094 726.84375 340.316406 725.554688 338.804688 724.339844 C 335.777344 721.929688 332.957031 719.6875 330.535156 717.761719 C 325.746094 713.890625 322.890625 710.898438 322.890625 710.898438 C 322.890625 710.898438 323.515625 711.722656 324.675781 713.109375 C 325.824219 714.503906 327.550781 716.433594 329.699219 718.671875 C 331.875 720.867188 334.410156 723.4375 337.125 726.191406 C 338.472656 727.566406 339.832031 729 341.171875 730.480469 C 342.511719 731.988281 343.746094 733.460938 345.035156 735.121094 C 346.191406 736.660156 347.3125 738.328125 348.273438 739.988281 C 349.214844 741.667969 350.078125 743.347656 350.734375 745.023438 C 351.398438 746.691406 351.941406 748.332031 352.28125 749.90625 C 352.671875 751.464844 352.824219 752.953125 352.929688 754.304688 C 352.964844 754.976562 352.945312 755.621094 352.957031 756.230469 C 352.910156 756.828125 352.871094 757.398438 352.832031 757.929688 C 352.667969 758.992188 352.511719 759.886719 352.320312 760.484375 C 352.214844 761.050781 351.890625 761.859375 351.75 762.277344 C 351.589844 762.734375 351.511719 762.980469 351.511719 762.980469 L 359.101562 765.132812 C 359.101562 765.132812 359.164062 764.878906 359.261719 764.410156 C 359.363281 763.898438 359.535156 763.375 359.695312 762.152344 C 359.898438 760.984375 359.957031 759.707031 359.992188 758.269531 C 359.957031 757.542969 359.917969 756.78125 359.886719 755.972656 C 359.78125 755.179688 359.695312 754.339844 359.539062 753.488281 "/>
<path style=" stroke:none;fill-rule:nonzero;fill:rgb(99.21875%,44.309998%,54.899597%);fill-opacity:1;" d="M 742.175781 227.078125 C 743.140625 227.488281 744.089844 227.902344 745.035156 228.3125 C 744.113281 227.847656 743.152344 227.441406 742.175781 227.078125 "/>
<path style=" stroke:none;fill-rule:nonzero;fill:rgb(99.21875%,44.309998%,54.899597%);fill-opacity:1;" d="M 751.082031 239.105469 C 744.71875 232.472656 736.449219 227.695312 727.53125 225.484375 C 732.441406 224.742188 737.53125 225.316406 742.175781 227.078125 C 730.210938 221.90625 717.894531 216.988281 704.917969 216.457031 C 708.300781 215.867188 711.691406 215.273438 715.082031 214.683594 C 700.191406 212.9375 684.761719 216.023438 671.683594 223.359375 C 674.40625 220.917969 677.449219 218.839844 680.714844 217.199219 C 661.492188 221.613281 640.574219 227.109375 628.984375 243.082031 C 631.132812 238.480469 634.902344 234.65625 639.46875 232.441406 C 618.9375 242.027344 598.277344 254.890625 588.542969 275.355469 C 591.421875 268.464844 594.925781 261.835938 598.996094 255.582031 C 583.925781 272.050781 570.628906 290.132812 559.386719 309.417969 C 552.339844 321.503906 545.988281 334.457031 544.773438 348.394531 C 544.394531 352.683594 544.925781 357.789062 548.609375 360.019531 C 551.660156 361.871094 555.761719 360.871094 558.578125 358.679688 C 561.390625 356.496094 563.261719 353.347656 565.265625 350.402344 C 571.796875 340.800781 580.421875 332.652344 590.363281 326.675781 C 587.34375 326.46875 584.324219 326.269531 581.3125 326.066406 C 591.070312 321.285156 600.839844 316.511719 610.601562 311.742188 C 606.214844 310.433594 601.417969 310.558594 597.105469 312.085938 C 605.9375 304.683594 617.230469 300.269531 628.738281 299.710938 C 622.179688 298.800781 615.503906 298.695312 608.921875 299.40625 C 618.390625 293.148438 630.296875 290.699219 641.464844 292.714844 C 633.792969 290.371094 625.464844 290.199219 617.707031 292.230469 C 628.566406 287.523438 640.523438 285.359375 652.339844 285.957031 C 645.824219 284.539062 639.035156 284.382812 632.464844 285.511719 C 643.238281 278.125 656.367188 274.242188 669.421875 274.578125 C 663.382812 273.808594 657.292969 273.511719 651.207031 273.695312 C 662.601562 268.546875 675.101562 265.882812 687.605469 265.945312 C 678.089844 264.648438 668.375 264.855469 658.929688 266.5625 C 669.167969 260.6875 680.777344 257.203125 692.5625 256.464844 C 683.992188 255.488281 675.292969 255.695312 666.785156 257.0625 C 679.335938 253.019531 692.339844 250.402344 705.472656 249.269531 C 698.441406 248.503906 691.300781 248.703125 684.3125 249.847656 C 698.453125 245.476562 712.933594 242.226562 727.585938 240.128906 C 721.90625 239.164062 716.132812 238.78125 710.378906 238.980469 C 720.429688 236 731.292969 235.847656 741.425781 238.527344 C 736.761719 236.667969 732.097656 234.8125 727.433594 232.953125 C 735.6875 232.621094 744.027344 234.789062 751.082031 239.105469 "/>
</g>
</svg>
